<svg xmlns="http://www.w3.org/2000/svg" viewBox="0 0 1024 1024" role="img" aria-labelledby="title desc">
  <title id="title">Mana Archive Icon Transparent</title>
  <desc id="desc">Trading-card frame and MA monogram without the rounded app background.</desc>
  <defs>
    <linearGradient id="manaGradient" x1="160" y1="220" x2="850" y2="850" gradientUnits="userSpaceOnUse">
      <stop offset="0%" stop-color="#ffffff"/>
      <stop offset="18%" stop-color="#54c7ff"/>
      <stop offset="40%" stop-color="#b56bff"/>
      <stop offset="58%" stop-color="#ff4d4d"/>
      <stop offset="76%" stop-color="#ffd84d"/>
      <stop offset="100%" stop-color="#7ee05f"/>
    </linearGradient>
    <linearGradient id="manaGradient2" x1="320" y1="250" x2="704" y2="740" gradientUnits="userSpaceOnUse">
      <stop offset="0%" stop-color="#ffffff"/>
      <stop offset="24%" stop-color="#48c5ff"/>
      <stop offset="47%" stop-color="#ff4d63"/>
      <stop offset="68%" stop-color="#ffce3a"/>
      <stop offset="100%" stop-color="#7ee05f"/>
    </linearGradient>
  </defs>
  <path d="M314 184 H696 Q770 184 770 258 V766 Q770 840 696 840 H328 Q254 840 254 766 V258 Q254 184 328 184 Z"
        fill="#05070d" stroke="url(#manaGradient)" stroke-width="24" stroke-linejoin="round"/>
  <path d="M334 232 H690 Q722 232 722 264 V305 Q690 305 690 273 H356 Q334 273 334 295 V698 Q334 730 366 730 H686 Q722 730 722 766 V784 H334 Q302 784 302 752 V264 Q302 232 334 232 Z"
        fill="none" stroke="url(#manaGradient)" stroke-width="15" stroke-linejoin="round" stroke-linecap="round"/>
  <path d="M346 257 L357 330 L383 277 L400 333 L419 258 L422 345 Q391 354 383 392 Q374 354 343 345 Z" fill="#ffffff"/>
  <path d="M661 708 L672 781 L698 728 L715 784 L734 709 L737 796 Q706 805 698 843 Q689 805 658 796 Z" fill="#8eea63"/>
  <circle cx="512" cy="512" r="216" fill="#05070d" stroke="url(#manaGradient)" stroke-width="16"/>
  <g fill="url(#manaGradient2)">
    <path d="M340 700 V318 H415 L512 546 L609 318 H684 V700 H606 V477 L536 650 H488 L418 477 V700 Z"/>
    <path d="M616 700 L722 700 L617 318 L542 318 Z" opacity="0.96"/>
    <path d="M617 572 H681 L650 455 Z" fill="#05070d"/>
  </g>
  <path d="M512 546 L548 458 L548 700 H476 V458 Z" fill="#05070d" opacity="0.72"/>
</svg>
